<svg xmlns="http://www.w3.org/2000/svg" width="920" height="240" viewBox="0 0 920 240">
  <defs>
    <linearGradient id="gWarm" x1="56" y1="40" x2="120" y2="176" gradientUnits="userSpaceOnUse">
      <stop offset="0" stop-color="#fbbf24" />
      <stop offset="1" stop-color="#f97316" />
    </linearGradient>
    <linearGradient id="gCool" x1="120" y1="88" x2="204" y2="208" gradientUnits="userSpaceOnUse">
      <stop offset="0" stop-color="#38bdf8" />
      <stop offset="1" stop-color="#2563eb" />
    </linearGradient>
    <radialGradient id="shine" cx="128" cy="92" r="110" gradientUnits="userSpaceOnUse">
      <stop offset="0" stop-color="#ffffff" stop-opacity=".35" />
      <stop offset=".35" stop-color="#ffffff" stop-opacity=".12" />
      <stop offset="1" stop-color="#ffffff" stop-opacity="0" />
    </radialGradient>
    <filter id="softShadow" x="-20%" y="-20%" width="140%" height="140%">
      <feDropShadow dx="0" dy="6" stdDeviation="8" flood-color="#000000" flood-opacity=".18" />
    </filter>
  </defs>

  <g transform="translate(12,12)">
    <circle cx="116" cy="108" r="88" fill="none" stroke="url(#gWarm)" stroke-width="20" stroke-linecap="round" />
    <path d="M52 128c16 42 60 70 110 63 31-6 56-24 70-49" fill="none" stroke="url(#gCool)" stroke-width="20" stroke-linecap="round" />
    <circle cx="116" cy="108" r="84" fill="url(#shine)" />
    <g filter="url(#softShadow)">
      <path d="M92 78c0-6 4-10 10-10h6v54c0 9-2 16-6 22-4 6-10 9-19 9-6 0-11-2-16-5l7-13c3 2 5 3 8 3 6 0 10-5 10-14V78z" fill="#111827" />
      <path d="M126 68h16v82h31v14h-47V68z" fill="#111827" />
    </g>
    <path d="M156 40l6 10 11 2-8 8 2 11-11-6-10 6 2-11-8-8 11-2 5-10z" fill="#fbbf24" />
  </g>

  <g transform="translate(260,58)">
    <text x="0" y="56" font-size="56" font-weight="800" font-family="system-ui, -apple-system, Segoe UI, Roboto, Helvetica, Arial, 'Noto Sans SC', 'PingFang SC', 'Microsoft YaHei', sans-serif" fill="#111827">
      重庆炬陆昇科技有限公司
    </text>
    <text x="2" y="124" font-size="28" font-weight="700" font-family="system-ui, -apple-system, Segoe UI, Roboto, Helvetica, Arial, sans-serif" fill="#2563eb" letter-spacing="1.2">
      CHONGQING JULUSHENG TECHNOLOGY
    </text>
  </g>
</svg>
