<svg xmlns="http://www.w3.org/2000/svg" width="256" height="256" viewBox="0 0 256 256">
  <defs>
    <linearGradient id="gWarm" x1="64" y1="64" x2="128" y2="160" gradientUnits="userSpaceOnUse">
      <stop offset="0" stop-color="#fbbf24" />
      <stop offset="1" stop-color="#f97316" />
    </linearGradient>
    <linearGradient id="gCool" x1="128" y1="96" x2="208" y2="208" gradientUnits="userSpaceOnUse">
      <stop offset="0" stop-color="#38bdf8" />
      <stop offset="1" stop-color="#2563eb" />
    </linearGradient>
    <radialGradient id="shine" cx="128" cy="92" r="110" gradientUnits="userSpaceOnUse">
      <stop offset="0" stop-color="#ffffff" stop-opacity=".35" />
      <stop offset=".35" stop-color="#ffffff" stop-opacity=".12" />
      <stop offset="1" stop-color="#ffffff" stop-opacity="0" />
    </radialGradient>
    <filter id="softShadow" x="-20%" y="-20%" width="140%" height="140%">
      <feDropShadow dx="0" dy="6" stdDeviation="8" flood-color="#000000" flood-opacity=".18" />
    </filter>
  </defs>

  <circle cx="128" cy="128" r="96" fill="none" stroke="url(#gWarm)" stroke-width="22" stroke-linecap="round" />
  <path d="M58 150c18 46 66 78 120 70 34-6 60-25 76-52" fill="none" stroke="url(#gCool)" stroke-width="22" stroke-linecap="round" />
  <circle cx="128" cy="128" r="92" fill="url(#shine)" />

  <g filter="url(#softShadow)">
    <path d="M98 96c0-7 5-12 12-12h6v58c0 10-2 18-7 25-5 7-12 10-22 10-7 0-13-2-18-6l8-14c3 2 6 3 9 3 7 0 12-6 12-16V96z" fill="#111827" />
    <path d="M136 84h18v88h34v16h-52V84z" fill="#111827" />
  </g>

  <path d="M170 62l6 10 11 2-8 8 2 11-11-6-10 6 2-11-8-8 11-2 5-10z" fill="#fbbf24" />
</svg>
